<?xml version="1.0" ?><svg data-name="Layer 1" id="Layer_1" viewBox="0 0 64 64" xmlns="http://www.w3.org/2000/svg"><title/><desc/><path d="M34.33,29.75a18,18,0,0,1-1.8-23.32A18,18,0,1,0,57.65,31.55,18,18,0,0,1,34.33,29.75Z" style="fill:#cff09e"/><path d="M43.06,20.8l.06.16.07-.16A31.19,31.19,0,0,1,54.91,7.38,17.92,17.92,0,0,0,41.86,3,31.19,31.19,0,0,0,43.06,20.8Z" style="fill:#a8dba8"/><path d="M61.06,19.69A31.11,31.11,0,0,0,43.28,20.9l-.16.06h0l.16.07A31.17,31.17,0,0,1,56.7,32.74,17.9,17.9,0,0,0,61.06,19.69Z" style="fill:#a8dba8"/><path d="M43,21l.16-.06L43,20.89A31.22,31.22,0,0,1,29.54,9.17a18,18,0,0,0-4.36,13.05A31.18,31.18,0,0,0,43,21Z" style="fill:#a8dba8"/><path d="M43.18,21.12,43.12,21h0l-.07.15A31.2,31.2,0,0,1,31.34,34.54,18,18,0,0,0,44.39,38.9,31.1,31.1,0,0,0,43.18,21.12Z" style="fill:#a8dba8"/><path d="M20.5,45l-1.42-1.42a3.84,3.84,0,0,1-1-1.8L3.88,56A3,3,0,0,0,8.12,60.2L22.3,46A3.84,3.84,0,0,1,20.5,45Z" style="fill:#79bd9a"/><path d="M30.4,33.68a14,14,0,0,1-1.91-2.33l-3.44,3.43a4,4,0,0,1,1.81,1l1.41,1.41a4,4,0,0,1,1,1.81l3.43-3.44A14,14,0,0,1,30.4,33.68Z" style="fill:#79bd9a"/><polygon points="9.54 58.79 3.88 55.96 7.41 52.42 13.07 55.25 9.54 58.79" style="fill:#cff09e"/><polygon points="16.61 51.72 10.95 48.89 14.48 45.35 20.14 48.18 16.61 51.72" style="fill:#cff09e"/><rect height="11" rx="4" ry="4" style="fill:#ff3314" transform="translate(35.5 -4.91) rotate(45)" width="10" x="18.68" y="34.9"/><rect height="11" rx="4" ry="4" style="fill:#a8dba8" transform="translate(35.5 -4.91) rotate(45)" width="10" x="18.68" y="34.9"/><path d="M34.33,42.4,29.4,39.58a4,4,0,0,1-1.13,3.3L26.15,45a4,4,0,0,1-3.29,1.13l2.82,4.93a4,4,0,0,0,6.3.84l3.2-3.2A4,4,0,0,0,34.33,42.4Z" style="fill:#cff09e"/><path d="M19.08,37.93l2.12-2.12a4,4,0,0,1,3.3-1.13l-2.82-4.93a4,4,0,0,0-6.3-.85l-3.2,3.2A4,4,0,0,0,13,38.4L18,41.22A4,4,0,0,1,19.08,37.93Z" style="fill:#cff09e"/><path d="M56.56,7.52a19,19,0,0,0-29.4,23.74L25,33.47l-2.41-4.22a5,5,0,0,0-7.88-1.05l-3.2,3.2a5,5,0,0,0,1.06,7.87l4.21,2.41-4.15,4.15-2.35,2.35h0L6.72,51.71h0L3.17,55.25a4,4,0,0,0,5.66,5.66l1.4-1.41h0L13.78,56h0l6.35-6.35.72-.71h0l1.55-1.55,2.41,4.21A5,5,0,0,0,28.48,54a5.31,5.31,0,0,0,.68,0,5,5,0,0,0,3.52-1.47l3.2-3.2a5,5,0,0,0-1.05-7.88l-4.22-2.41,2.2-2.2A19,19,0,0,0,56.56,7.52Zm3.37,10.92a32,32,0,0,0-14.84.8A30.19,30.19,0,0,1,54.82,8.62l.32.32A16.88,16.88,0,0,1,59.93,18.44ZM31.1,33a17.65,17.65,0,0,1-1.66-1.93,1,1,0,0,0-.25-.41l-.1-.09a16.86,16.86,0,0,1-2.77-7.08,32,32,0,0,0,5.76.52,32,32,0,0,0,9.07-1.31,30.15,30.15,0,0,1-9.73,10.61ZM53.24,7.29A32,32,0,0,0,43.3,18.35,30.06,30.06,0,0,1,42.68,4h.44A16.91,16.91,0,0,1,53.24,7.29ZM40.61,4.14A32.14,32.14,0,0,0,41.4,19,30.25,30.25,0,0,1,30.79,9.26l.31-.32A16.89,16.89,0,0,1,40.61,4.14ZM29.46,10.85a32.08,32.08,0,0,0,11,9.93,30.1,30.1,0,0,1-14.37.62A16.93,16.93,0,0,1,29.46,10.85ZM24,40.05a1,1,0,0,0,.71.29,1,1,0,0,0,.71-.29l2.12-2.12h0a2.93,2.93,0,0,1,.73,1.2,1.11,1.11,0,0,0,.08.3.43.43,0,0,1,0,.11,1.06,1.06,0,0,0,0,.31c0,.07,0,.13,0,.2a3,3,0,0,1-.88,2.12l-2.12,2.12a3,3,0,0,1-2.33.87.75.75,0,0,0-.3,0l-.12,0a1,1,0,0,0-.29-.07,3,3,0,0,1-1.21-.74h0l1.42-1.41a1,1,0,0,0-1.42-1.42l-1.41,1.42h0a3.21,3.21,0,0,1-.74-1.2.84.84,0,0,0-.08-.31.52.52,0,0,0,0-.11.82.82,0,0,0,0-.31,1.21,1.21,0,0,1,0-.19,3,3,0,0,1,.88-2.13l2.12-2.12a3.08,3.08,0,0,1,4.24,0L24,38.63A1,1,0,0,0,24,40.05ZM19.94,47l-3.77-1.88,1.57-1.57a4.68,4.68,0,0,0,.63.78l1.42,1.42h0a4.68,4.68,0,0,0,.78.63Zm-2,2L16.41,50.5l-3.77-1.89L14,47.26l.69-.69,3.77,1.88ZM12.87,54,9.1,52.15l2.05-2L14.92,52ZM9.34,57.57,5.57,55.68l2-2,3.77,1.89-.5.5ZM12,35.33a3,3,0,0,1,.85-2.52l3.21-3.2a3,3,0,0,1,4.72.63l2,3.54A4.83,4.83,0,0,0,20.5,35.1l-2.13,2.12a5.08,5.08,0,0,0-1.32,2.34l-3.53-2A3,3,0,0,1,12,35.33ZM4.59,59.49A2,2,0,0,1,4,58.08a1.89,1.89,0,0,1,.19-.85l3.66,1.83-.44.43A2,2,0,0,1,4.59,59.49Zm30.73-14A2.93,2.93,0,0,1,34.47,48l-3.2,3.21a3,3,0,0,1-4.73-.64l-2-3.54a5,5,0,0,0,2.34-1.31L29,43.58a4.87,4.87,0,0,0,1.32-2.33l3.54,2A3,3,0,0,1,35.32,45.48Zm-5.7-8.19a5.31,5.31,0,0,0-.64-.78L27.57,35.1a5.31,5.31,0,0,0-.78-.64l1.56-1.56a18.93,18.93,0,0,0,2.83,2.83ZM33.54,35l-.1-.11a.93.93,0,0,0-.41-.25h0A32.23,32.23,0,0,0,43,23.57,30.14,30.14,0,0,1,43.57,38h-.45A16.87,16.87,0,0,1,33.54,35Zm12.1,2.77a32.09,32.09,0,0,0-.8-14.84,30,30,0,0,1,10.61,9.73l-.31.32A16.88,16.88,0,0,1,45.64,37.77Zm11.15-6.7a32.14,32.14,0,0,0-11.06-9.94,30.14,30.14,0,0,1,14.38-.62A17,17,0,0,1,56.79,31.07Z" style="fill:#3b8686"/></svg>